<svg fill="none"  xmlns="http://www.w3.org/2000/svg" viewBox="0 0 1838 545">
  <g fill="currentColor" fill-rule="evenodd" clip-rule="evenodd">
    <path fill-rule="evenodd" clip-rule="evenodd" d="M484.79,272.45c0-89.21,55.12-149.8,140.54-149.8,65.22,0,114.45,37.87,124.55,98.46h-39.13c-10.1-40.82-41.66-64.8-86.26-64.8-61.85,0-102.25,47.97-102.25,116.14s40.4,116.14,101.41,116.14c54.28,0,93.41-32.4,93.41-84.58v-10.1h-88.36v-33.66h124.13v159.48h-31.56l-2.52-42.92c-13.47,21.46-45.02,45.45-95.52,45.45-81.63,0-138.44-60.59-138.44-149.8Z"/>
    <path fill-rule="evenodd" d="M797.43,312.42c0-65.22,41.24-109.82,101.83-109.82s100.15,38.29,101.83,101.83c0,4.63-.42,9.68-.84,14.73h-166.63v2.94c1.26,40.82,26.93,69.43,67.75,69.43,30.3,0,53.86-15.99,61.01-43.76h34.93c-8.42,42.92-43.76,74.48-93.41,74.48-64.38,0-106.46-44.18-106.46-109.82Zm166.63-21.88c-3.37-37.03-28.61-57.65-64.38-57.65-31.56,0-60.59,22.72-63.96,57.65h128.34Z"/>
    <path fill-rule="evenodd" d="M1361.27,296.01v123.71h-34.5v-121.61c0-42.08-18.51-63.96-50.91-63.96-35.77,0-57.65,26.93-57.65,70.69v114.87h-34.5v-121.61c0-42.08-18.94-63.96-51.76-63.96-35.34,0-56.81,29.45-56.81,72.37v113.19h-34.5V205.12h29.88l4.63,29.46c11.36-15.57,29.46-31.98,62.7-31.98,29.87,0,55.54,13.47,67.75,40.82,13.05-23.14,36.19-40.82,74.48-40.82,44.6,0,81.21,25.67,81.21,93.41Z"/>
    <path fill-rule="evenodd" d="M1395.35,312.42c0-65.22,41.24-109.82,101.83-109.82s100.15,38.29,101.83,101.83c0,4.63-.42,9.68-.84,14.73h-166.63v2.94c1.26,40.82,26.93,69.43,67.75,69.43,30.3,0,53.86-15.99,61.01-43.76h34.93c-8.42,42.92-43.76,74.48-93.41,74.48-64.38,0-106.46-44.18-106.46-109.82Zm166.63-21.88c-3.37-37.03-28.61-57.65-64.38-57.65-31.56,0-60.59,22.72-63.96,57.65h128.34Z"/>
    <path fill-rule="evenodd" d="M1613.31,205.12h38.71v-23.99c0-37.87,15.99-55.96,55.96-55.96h39.13v31.56h-37.03c-17.25,0-23.56,7.15-23.56,23.56v24.83h60.59v31.56h-60.59v183.04h-34.5V236.68h-38.71v-31.56Z"/>
    <path fill-rule="evenodd" d="M1767.32,146.64c0-13.05,9.68-22.3,22.3-22.3s22.3,9.26,22.3,22.3-9.68,22.3-22.3,22.3-22.3-9.26-22.3-22.3Zm4.63,58.49h34.5v214.6h-34.5V205.12Z"/>
  </g>
  <g>
    <polygon fill="#31ca6e" points="188.9 8.95 108.46 277.03 26.08 277.03 188.9 8.95"/>
    <polygon fill="#9de878" points="352.83 277.03 271.09 277.03 188.9 8.95 352.83 277.03"/>
    <polygon fill="#90ff9f" points="352.83 277.03 188.9 535.95 271.09 277.03 352.83 277.03"/>
    <polygon fill="#25bf19" points="188.9 535.95 26.08 277.03 108.46 277.03 188.9 535.95"/>
    <polygon fill="#90ff9f" points="271.09 277.03 108.46 277.03 188.9 8.95 271.09 277.03"/>
    <polygon fill="#14a800" points="271.09 277.03 188.9 535.95 108.46 277.03 271.09 277.03"/>
  </g>
</svg>